<?xml version="1.0" standalone="no"?>
<!DOCTYPE svg PUBLIC "-//W3C//DTD SVG 20010904//EN"
 "http://www.w3.org/TR/2001/REC-SVG-20010904/DTD/svg10.dtd">
<svg version="1.0" xmlns="http://www.w3.org/2000/svg"
 width="452.000000pt" height="452.000000pt" viewBox="0 0 452.000000 452.000000"
 preserveAspectRatio="xMidYMid meet">
<metadata>
Created by potrace 1.14, written by Peter Selinger 2001-2017
</metadata>
<g transform="translate(0.000000,452.000000) scale(0.100000,-0.100000)"
fill="#000000" stroke="none">
<path d="M2081 4443 c-22 -75 -40 -115 -81 -178 -34 -53 -50 -96 -50 -138 0
-35 9 -51 62 -116 75 -91 159 -187 226 -259 25 -28 42 -73 51 -134 l8 -62 -27
31 c-16 17 -35 55 -44 85 -19 66 -73 124 -124 135 -141 29 -260 -24 -291 -128
-16 -53 -58 -139 -69 -139 -14 0 -63 203 -57 235 3 17 26 110 51 207 34 134
43 187 38 215 -9 52 -165 316 -178 303 -7 -7 -7 -24 1 -50 12 -46 10 -47 -17
-20 -19 19 -70 28 -70 12 0 -4 11 -23 25 -42 18 -24 23 -41 19 -65 -4 -28 2
-40 51 -94 30 -34 55 -66 55 -71 0 -5 -16 -49 -36 -97 -77 -185 -95 -251 -93
-343 2 -92 20 -215 44 -295 8 -27 25 -89 39 -136 25 -89 55 -156 81 -182 8 -9
33 -53 55 -98 33 -69 39 -89 33 -119 -10 -52 -6 -114 12 -156 8 -20 15 -53 15
-74 0 -28 6 -41 22 -52 l23 -15 -40 -47 c-99 -117 -122 -149 -133 -180 -7 -19
-32 -63 -55 -98 -24 -35 -53 -95 -65 -135 -13 -39 -28 -75 -35 -80 -7 -5 -34
-15 -62 -22 -60 -15 -65 -19 -41 -33 18 -10 18 -11 -5 -24 -21 -11 -22 -13 -7
-19 14 -5 15 -11 8 -25 -15 -29 10 -31 46 -4 l31 23 -15 -42 c-16 -43 -9 -135
7 -108 6 9 14 -2 27 -32 16 -39 20 -43 30 -29 11 15 14 12 30 -20 14 -31 15
-42 5 -64 -17 -39 -7 -40 18 -2 l22 33 -6 -55 c-11 -105 -50 -208 -110 -295
-39 -56 -132 -315 -114 -315 17 0 39 48 59 125 23 90 39 125 99 209 64 92 58
74 -64 -204 -21 -47 -59 -114 -86 -149 -30 -39 -49 -75 -49 -90 0 -15 13 -56
29 -93 l29 -67 -38 -66 c-22 -36 -44 -81 -51 -100 -13 -34 -12 -36 21 -65 45
-39 70 -45 117 -29 21 7 44 14 51 15 19 3 40 -23 54 -67 6 -23 23 -48 36 -57
32 -21 158 -21 193 0 13 8 31 14 39 13 8 -1 21 -3 28 -3 6 -1 12 -9 12 -17 0
-8 9 -24 20 -35 18 -18 22 -18 54 -5 35 15 36 15 52 -17 24 -46 14 -107 -25
-156 -44 -54 -45 -96 -2 -134 17 -15 40 -28 50 -28 21 0 55 41 91 110 36 67
58 88 117 110 65 24 115 25 197 3 87 -23 130 -13 182 43 37 39 46 44 82 42 45
-1 92 29 160 108 22 24 42 44 45 44 3 0 19 -34 37 -76 54 -131 169 -319 200
-327 41 -11 87 82 70 142 -11 43 -73 143 -132 213 -21 25 -54 79 -72 120 -30
66 -136 360 -136 376 0 4 16 -17 34 -46 22 -34 38 -77 46 -120 19 -102 39
-134 92 -147 26 -7 28 -5 34 34 7 43 13 48 32 29 21 -21 14 28 -14 93 -14 34
-23 66 -21 72 2 7 -14 38 -35 70 -21 31 -46 76 -53 98 -23 65 -156 238 -225
293 -42 34 -58 52 -51 60 7 8 1 15 -18 24 -64 28 -140 132 -141 191 0 19 2 21
15 11 8 -6 17 -22 21 -33 13 -43 36 -86 49 -91 24 -9 -27 111 -72 172 l-24 33
22 17 c21 18 21 19 5 50 -9 17 -30 42 -47 54 -37 27 -57 63 -65 115 -8 49 -31
93 -49 93 -7 0 -17 5 -21 12 -5 8 -2 9 9 5 27 -10 20 12 -7 25 -14 6 -28 18
-31 27 -18 45 -66 251 -67 282 0 20 15 71 37 120 65 147 136 343 136 374 0 17
-2 53 -5 80 -2 29 6 100 20 170 24 117 28 210 13 270 -4 17 -10 54 -13 84 -4
30 -9 64 -11 75 -5 22 -10 57 -20 141 -15 118 -15 118 -202 306 l-175 177 39
40 c24 25 55 44 80 51 76 21 64 56 -15 47 -55 -6 -60 6 -27 69 27 55 30 80 14
122 -8 22 -12 24 -19 13 -8 -12 -10 -10 -10 7 0 48 -18 28 -39 -44z m-470
-2698 c-3 -5 -8 1 -11 15 -4 14 -4 29 -1 35 3 5 8 -1 11 -15 4 -14 4 -29 1
-35z m899 -19 c-1 -20 -2 -20 -15 4 -19 33 -19 46 0 30 8 -7 15 -22 15 -34z"/>
</g>
</svg>
